<svg xmlns="http://www.w3.org/2000/svg" viewBox="0 0 480 240" fill="none" role="img" aria-label="GeneoRx">
  <defs>
    <linearGradient id="silver" x1="10%" y1="0%" x2="90%" y2="100%">
      <stop offset="0%" stop-color="#FFFFFF"/>
      <stop offset="100%" stop-color="#B8C6D2"/>
    </linearGradient>
    <linearGradient id="blue" x1="20%" y1="100%" x2="100%" y2="0%">
      <stop offset="0%" stop-color="#0B5CAD"/>
      <stop offset="100%" stop-color="#4AA8FF"/>
    </linearGradient>
  </defs>

  <g transform="translate(86 6)">
    <text x="2" y="138" font-family="'Arial Black', Impact, Arial, sans-serif" font-size="130" font-weight="900" fill="url(#silver)">G</text>
    <g transform="translate(48 63) scale(0.42)" fill="none" stroke-linecap="round" stroke-width="5">
      <path d="M 8 0 C 34 18 34 42 8 60" stroke="url(#blue)"/>
      <path d="M 40 0 C 14 18 14 42 40 60" stroke="url(#silver)"/>
      <path d="M 14 12 H 34" stroke="url(#blue)"/>
      <path d="M 10 30 H 38" stroke="url(#silver)"/>
      <path d="M 14 48 H 34" stroke="url(#blue)"/>
    </g>
    <g transform="translate(96 28) scale(0.58)">
      <path fill="url(#blue)" d="M 10 190 L 35 190 L 195 25 L 170 25 Z"/>
      <path fill="url(#silver)" d="M 5 5 L 195 175 L 165 195 L 30 30 Z"/>
    </g>
  </g>

  <text x="240" y="218" text-anchor="middle" font-family="'Arial Black', Impact, Arial, sans-serif" font-size="40" font-weight="900" letter-spacing="9">
    <tspan fill="url(#silver)">GENEOR</tspan><tspan fill="url(#blue)">X</tspan>
  </text>
</svg>
